<?xml version="1.0" standalone="no"?>
<!DOCTYPE svg PUBLIC "-//W3C//DTD SVG 20010904//EN"
 "http://www.w3.org/TR/2001/REC-SVG-20010904/DTD/svg10.dtd">
<svg version="1.0" xmlns="http://www.w3.org/2000/svg"
 width="215.000000pt" height="187.000000pt" viewBox="0 0 215.000000 187.000000"
 preserveAspectRatio="xMidYMid meet">

<g transform="translate(0.000000,187.000000) scale(0.100000,-0.100000)"
fill="#000000" stroke="none">
<path d="M64 1777 c-2 -7 -3 -60 -2 -118 l3 -104 220 -5 220 -5 1 -710 c1
-390 2 -720 3 -732 1 -22 4 -23 116 -23 63 0 116 1 117 3 2 1 5 330 8 732 l5
730 440 5 440 5 3 104 c2 67 -1 108 -9 117 -17 20 -1557 21 -1565 1z"/>
<path d="M1845 1778 c-3 -7 -6 -337 -8 -733 l-2 -720 -75 -3 c-41 -2 -85 0
-97 3 l-23 5 0 510 c0 505 0 509 -21 520 -27 15 -633 10 -648 -5 -13 -13 -17
-1253 -4 -1266 5 -5 61 -8 124 -7 l114 3 3 510 c2 465 4 511 19 523 20 14 131
16 153 2 13 -8 16 -81 20 -522 l5 -513 324 -3 c230 -2 328 1 337 9 12 10 14
152 14 849 0 755 -2 838 -16 844 -31 12 -214 7 -219 -6z"/>
</g>
</svg>
